<svg viewBox="0 0 32 32" xmlns="http://www.w3.org/2000/svg">
<path d="M16 32C24.8222 32 32 24.8222 32 16C32 7.17781 24.8222 0 16 0C7.17781 0 0 7.17781 0 16C0 24.8222 7.17781 32 16 32ZM16 1.59869C23.9413 1.59869 30.4013 8.05873 30.4013 16C30.4013 23.9413 23.9413 30.4013 16 30.4013C8.05873 30.4013 1.59869 23.9413 1.59869 16C1.59869 8.05873 8.05873 1.59869 16 1.59869Z"/>
<path d="M9.05058 16.8025H21.0179L17.8858 19.9347C17.5726 20.2479 17.5726 20.7503 17.8858 21.0635C18.0424 21.2201 18.2447 21.2985 18.4535 21.2985C18.6623 21.2985 18.8646 21.2201 19.0212 21.0635L23.5171 16.5676C23.8303 16.2544 23.8303 15.752 23.5171 15.4387L19.0212 10.9428C18.708 10.6296 18.2055 10.6296 17.8923 10.9428C17.5791 11.256 17.5791 11.7585 17.8923 12.0717L21.0245 15.2038H9.05058C8.60686 15.2038 8.24797 15.5627 8.24797 16.0064C8.24797 16.4502 8.60686 16.8025 9.05058 16.8025Z"/>
</svg>