<svg viewBox="0 0 35 44" xmlns="http://www.w3.org/2000/svg">
<path d="M2.23385 43.5816H32.7672C33.5339 43.5816 34.1339 42.9118 34.1339 42.056V1.90717C34.1339 1.05136 33.5339 0.381592 32.7672 0.381592H9.86719C9.76719 0.381592 9.63385 0.381592 9.53385 0.418801C9.50052 0.418801 9.46719 0.45601 9.46719 0.45601C9.36719 0.49322 9.30052 0.530429 9.20052 0.567638C9.16719 0.604848 9.13385 0.604848 9.10052 0.642057C9.00052 0.716475 8.90052 0.790894 8.83385 0.902522L1.20052 10.949C1.10052 11.0607 1.03385 11.2095 0.967187 11.3583C0.933854 11.3955 0.933854 11.47 0.933854 11.5072C0.900521 11.6188 0.900521 11.7304 0.867188 11.8421C0.867188 11.8793 0.867188 11.8793 0.867188 11.9165V42.0188C0.867187 42.9118 1.50052 43.5816 2.23385 43.5816ZM8.50052 6.07461V10.4653H5.16719L8.50052 6.07461ZM3.60052 13.4793H9.86719C10.6339 13.4793 11.2339 12.8095 11.2339 11.9537V3.43275H31.4005V40.5304H3.60052V13.4793Z" fill="#96C038"/>
<path d="M27.3338 16.7908H7.66716C6.9005 16.7908 6.3005 17.4606 6.3005 18.3164C6.3005 19.1722 6.9005 19.842 7.66716 19.842H27.3338C28.1005 19.842 28.7005 19.1722 28.7005 18.3164C28.7005 17.4606 28.1005 16.7908 27.3338 16.7908Z" fill="#96C038"/>
<path d="M27.3338 24.1584H7.66716C6.9005 24.1584 6.3005 24.8282 6.3005 25.684C6.3005 26.5398 6.9005 27.2096 7.66716 27.2096H27.3338C28.1005 27.2096 28.7005 26.5398 28.7005 25.684C28.7005 24.8654 28.1005 24.1584 27.3338 24.1584Z" fill="#96C038"/>
</svg>
