<svg viewBox="0 0 119 38" xmlns="http://www.w3.org/2000/svg" fill="#fff">
<path d="M84.8647 0.0171432H105.673C109.591 0.0171432 112.486 0.687841 114.359 2.02017C116.232 3.35283 117.172 5.41879 117.172 8.21804V11.178C117.172 13.3244 116.765 15.0417 115.951 16.3203C115.137 17.6083 113.897 18.5026 112.214 19.0123C113.255 19.4148 114.124 20.0943 114.811 21.0694C115.499 22.0352 115.996 23.2425 116.295 24.6913L119 37.2474H110.541L108.686 27.1594C108.46 25.7822 107.989 24.6732 107.275 23.8416C106.56 23.01 105.727 22.5986 104.796 22.5986H96.7163V15.1311H105.32C106.542 15.1311 107.483 14.8986 108.143 14.4334C108.804 13.9773 109.138 13.3155 109.138 12.4569V10.4717C109.138 9.61303 108.804 8.95134 108.143 8.49516C107.483 8.03005 106.542 7.79746 105.32 7.79746H92.8984V37.2474H84.8647V0.0171432Z"/>
<path d="M26 0H34.242L41.5071 28.7968C41.6336 29.2441 41.7874 29.5928 41.9864 29.8164C42.1765 30.0398 42.4208 30.1562 42.7012 30.1562C43.0178 30.1562 43.2801 30.0398 43.4974 29.8164C43.7055 29.5928 43.8594 29.2441 43.9408 28.7968L51.4499 0H59.2124L66.7668 28.7968C66.8756 29.2619 67.0204 29.6106 67.2194 29.8254C67.4092 30.049 67.6535 30.1562 67.9612 30.1562C68.2418 30.1562 68.4768 30.0398 68.676 29.8164C68.8659 29.5928 69.0287 29.2441 69.1465 28.7968L76.4113 0H84.735L76.357 31.0505C75.6695 33.4562 74.6653 35.218 73.3352 36.327C72.0143 37.436 70.2681 37.9903 68.115 37.9903C65.9436 37.9903 64.1522 37.4002 62.732 36.2195C61.3204 35.0392 60.3523 33.322 59.8186 31.0505L55.3673 12.3951L50.8619 31.0505C50.1742 33.4562 49.1701 35.218 47.8399 36.327C46.5191 37.436 44.7641 37.9903 42.5927 37.9903C40.4213 37.9903 38.6479 37.4179 37.282 36.2733C35.9068 35.1286 34.9114 33.3846 34.2964 31.0505L26 0Z"/>
<path d="M12.2227 0H31.7467V7.78032H12.0599C10.7391 7.78032 9.73464 8.06664 9.0562 8.63001C8.37776 9.20238 8.03375 10.0431 8.03375 11.1608C8.03375 12.2609 8.37776 13.0928 9.0562 13.647C9.73464 14.2104 10.7391 14.4878 12.0599 14.4878H20.5101C24.5723 14.4878 27.7478 15.4893 30.0278 17.5015C32.3077 19.5137 33.4476 22.2952 33.4476 25.8544C33.4476 29.4229 32.3077 32.2041 30.0278 34.2163C27.7478 36.2287 24.5723 37.2302 20.5101 37.2302H0.768872V29.3959H20.7C22.229 29.3959 23.3963 29.101 24.1832 28.5016C24.9704 27.9115 25.3595 27.0261 25.3595 25.8544C25.3595 24.6742 24.9704 23.7887 24.1832 23.1984C23.3963 22.6171 22.229 22.3219 20.7 22.3219H12.2227C8.44088 22.3219 5.45549 21.3204 3.27505 19.326C1.0946 17.3227 0 14.604 0 11.1608C0 7.69986 1.0946 4.98134 3.27505 2.98697C5.45549 0.992613 8.44088 0 12.2227 0Z"/>
</svg>
